<svg xmlns="http://www.w3.org/2000/svg" xmlns:xlink="http://www.w3.org/1999/xlink" xmlns:svgjs="http://svgjs.com/svgjs" version="1.1" width="512" height="512" x="0" y="0" viewBox="0 0 512 512" style="enable-background:new 0 0 512 512" xml:space="preserve" class=""><g>
<g xmlns="http://www.w3.org/2000/svg">
	<g>
		<path d="M170.664,63.996C164.773,63.996,160,68.77,160,74.66v32c0,5.891,4.773,10.664,10.664,10.664s10.672-4.773,10.672-10.664    v-32C181.336,68.769,176.555,63.996,170.664,63.996z" fill="#ffffff" data-original="#000000" style="" class=""/>
	</g>
</g>
<g xmlns="http://www.w3.org/2000/svg">
	<g>
		<path d="M87.703,136.605L65.07,113.98c-4.164-4.164-10.914-4.164-15.086,0c-4.164,4.164-4.164,10.922,0,15.086    c0.008,0,0.008,0.008,0.016,0.008l22.609,22.609c0,0,0,0.008,0.008,0.008c4.164,4.164,10.914,4.164,15.086,0    C91.867,147.527,91.867,140.777,87.703,136.605z" fill="#ffffff" data-original="#000000" style="" class=""/>
	</g>
</g>
<g xmlns="http://www.w3.org/2000/svg">
	<g>
		<path d="M42.664,223.996l-32-0.008v0.008C4.773,223.996,0,228.77,0,234.66c0,5.89,4.773,10.664,10.664,10.664c0,0,0.008,0,0.016,0    h31.984c5.891,0,10.672-4.773,10.672-10.664C53.336,228.769,48.563,223.996,42.664,223.996z" fill="#ffffff" data-original="#000000" style="" class=""/>
	</g>
</g>
<g xmlns="http://www.w3.org/2000/svg">
	<g>
		<path d="M87.703,317.629c-4.172-4.156-10.922-4.172-15.086,0c-0.008,0-0.008,0-0.008,0l-22.625,22.625    c-4.164,4.156-4.164,10.922,0,15.094c4.172,4.156,10.922,4.156,15.086,0l0.008-0.016l22.625-22.625    C91.867,328.535,91.867,321.785,87.703,317.629z" fill="#ffffff" data-original="#000000" style="" class=""/>
	</g>
</g>
<g xmlns="http://www.w3.org/2000/svg">
	<g>
		<path d="M291.344,113.98c-4.156-4.164-10.906-4.164-15.078,0c-0.016,0-0.016,0-0.016,0l-22.609,22.617l-0.008,0.008    c-4.164,4.172-4.164,10.922,0,15.086s10.922,4.164,15.086,0l22.625-22.625C295.516,124.902,295.516,118.144,291.344,113.98z" fill="#ffffff" data-original="#000000" style="" class=""/>
	</g>
</g>
<g xmlns="http://www.w3.org/2000/svg">
	<g>
		<path d="M382.672,189.332c-37.281,0-70.875,15.781-94.484,41.016c-3.531-4.078-7.547-7.734-11.938-10.883    c-7.383-51.711-51.836-91.469-105.586-91.469C111.758,127.996,64,175.746,64,234.66c0,35.625,17.461,67.156,44.281,86.516    c-6.469,12.109-10.141,25.922-10.141,40.594c0,47.609,38.602,86.234,86.219,86.234h198.312    C454.094,448.004,512,390.098,512,318.66C512,247.23,454.094,189.332,382.672,189.332z M85.336,234.66    c0-22.797,8.875-44.227,24.992-60.344c16.117-16.117,37.547-24.992,60.336-24.992c22.797,0,44.227,8.875,60.344,24.992    c9.711,9.719,16.789,21.367,20.883,34.078c-5.078-1.188-10.359-1.82-15.797-1.82c-38.094,0-68.977,30.883-68.977,68.977    c0,0.578,0.008,1.141,0.023,1.719c-18.281,3.703-34.461,13.203-46.555,26.484c-3.608-2.625-7.038-5.531-10.257-8.75    C94.211,278.879,85.336,257.449,85.336,234.66z M459.031,395.035c-20.391,20.391-47.516,31.625-76.359,31.625H184.359    c-35.773,0-64.883-29.109-64.883-64.891c0-15.047,5.273-29.734,14.844-41.297c9.461-11.453,22.617-19.375,37.055-22.281    l17.531-3.562l-0.438-17.875c-0.016-0.406-0.016-0.812-0.016-1.203c0-26.273,21.367-47.641,47.641-47.641    c13.812,0,26.93,5.984,36,16.43l15.516,17.883l16.172-17.305c10-10.703,21.844-19.133,35.172-25.039    c13.781-6.117,28.484-9.211,43.719-9.211c28.844,0,55.969,11.227,76.359,31.625c20.406,20.398,31.625,47.523,31.625,76.367    S479.438,374.629,459.031,395.035z" fill="#ffffff" data-original="#000000" style="" class=""/>
	</g>
</g>
<g xmlns="http://www.w3.org/2000/svg">
</g>
<g xmlns="http://www.w3.org/2000/svg">
</g>
<g xmlns="http://www.w3.org/2000/svg">
</g>
<g xmlns="http://www.w3.org/2000/svg">
</g>
<g xmlns="http://www.w3.org/2000/svg">
</g>
<g xmlns="http://www.w3.org/2000/svg">
</g>
<g xmlns="http://www.w3.org/2000/svg">
</g>
<g xmlns="http://www.w3.org/2000/svg">
</g>
<g xmlns="http://www.w3.org/2000/svg">
</g>
<g xmlns="http://www.w3.org/2000/svg">
</g>
<g xmlns="http://www.w3.org/2000/svg">
</g>
<g xmlns="http://www.w3.org/2000/svg">
</g>
<g xmlns="http://www.w3.org/2000/svg">
</g>
<g xmlns="http://www.w3.org/2000/svg">
</g>
<g xmlns="http://www.w3.org/2000/svg">
</g>
</g></svg>
